<svg width="256" height="343" viewBox="0 0 256 343" fill="none" xmlns="http://www.w3.org/2000/svg">
<g filter="url(#filter0_di_2_18)">
<mask id="path-1-inside-1_2_18" fill="white">
<path fill-rule="evenodd" clip-rule="evenodd" d="M88 94.9961C88 91.1301 91.134 87.9961 95 87.9961H182C220.66 87.9961 252 119.336 252 157.996V264.996C252 303.656 220.66 334.996 182 334.996H74.2839C35.5133 334.996 4.12757 303.483 4.28452 264.713L4.31106 258.156C4.31141 258.07 4.24168 258 4.15553 258V258C4.06963 258 4 257.93 4 257.844V7.26867C4 0.729185 12.1703 -2.23898 16.3677 2.77564L66.3678 62.5102C67.4222 63.7699 68 65.3604 68 67.0032V185.282V197.06V215.353C68 235.39 84.2438 251.634 104.282 251.634H156.391V251.634C158.61 251.634 160.786 252.463 162.237 254.143L180.231 274.978C184.47 279.886 192.529 276.888 192.529 270.402V218.605C192.624 217.533 192.672 216.449 192.672 215.353V185.282C192.672 165.244 176.429 149 156.391 149H104.282C102.41 149 100.571 149.142 98.7757 149.415C93.624 150.199 88 146.704 88 141.493V94.9961Z"/>
</mask>
<path fill-rule="evenodd" clip-rule="evenodd" d="M88 94.9961C88 91.1301 91.134 87.9961 95 87.9961H182C220.66 87.9961 252 119.336 252 157.996V264.996C252 303.656 220.66 334.996 182 334.996H74.2839C35.5133 334.996 4.12757 303.483 4.28452 264.713L4.31106 258.156C4.31141 258.07 4.24168 258 4.15553 258V258C4.06963 258 4 257.93 4 257.844V7.26867C4 0.729185 12.1703 -2.23898 16.3677 2.77564L66.3678 62.5102C67.4222 63.7699 68 65.3604 68 67.0032V185.282V197.06V215.353C68 235.39 84.2438 251.634 104.282 251.634H156.391V251.634C158.61 251.634 160.786 252.463 162.237 254.143L180.231 274.978C184.47 279.886 192.529 276.888 192.529 270.402V218.605C192.624 217.533 192.672 216.449 192.672 215.353V185.282C192.672 165.244 176.429 149 156.391 149H104.282C102.41 149 100.571 149.142 98.7757 149.415C93.624 150.199 88 146.704 88 141.493V94.9961Z" fill="url(#paint0_linear_2_18)"/>
<path d="M4.28452 264.713L7.2845 264.725L4.28452 264.713ZM192.529 218.605L189.54 218.339L189.529 218.472V218.605H192.529ZM180.231 274.978L177.96 276.939L180.231 274.978ZM162.237 254.143L159.966 256.103L162.237 254.143ZM66.3678 62.5102L68.6682 60.5846L66.3678 62.5102ZM4.31106 258.156L7.31104 258.168L4.31106 258.156ZM98.7757 149.415L98.3241 146.449L98.7757 149.415ZM182 84.9961H95V90.9961H182V84.9961ZM255 157.996C255 117.679 222.317 84.9961 182 84.9961V90.9961C219.003 90.9961 249 120.993 249 157.996H255ZM255 264.996V157.996H249V264.996H255ZM182 337.996C222.317 337.996 255 305.313 255 264.996H249C249 301.999 219.003 331.996 182 331.996V337.996ZM74.2839 337.996H182V331.996H74.2839V337.996ZM1.28455 264.701C1.12086 305.132 33.8517 337.996 74.2839 337.996V331.996C37.1749 331.996 7.13427 301.834 7.2845 264.725L1.28455 264.701ZM1.31109 258.144L1.28455 264.701L7.2845 264.725L7.31104 258.168L1.31109 258.144ZM1 7.26867V257.844H7V7.26867H1ZM68.6682 60.5846L18.6682 0.850067L14.0673 4.70122L64.0673 64.4358L68.6682 60.5846ZM71 185.282V67.0032H65V185.282H71ZM71 197.06V185.282H65V197.06H71ZM71 215.353V197.06H65V215.353H71ZM104.282 248.634C85.9007 248.634 71 233.734 71 215.353H65C65 237.047 82.587 254.634 104.282 254.634V248.634ZM156.391 248.634H104.282V254.634H156.391V248.634ZM182.501 273.017L164.507 252.182L159.966 256.103L177.96 276.939L182.501 273.017ZM189.529 218.605V270.402H195.529V218.605H189.529ZM189.672 215.353C189.672 216.36 189.628 217.356 189.54 218.339L195.517 218.87C195.62 217.711 195.672 216.537 195.672 215.353H189.672ZM189.672 185.282V215.353H195.672V185.282H189.672ZM156.391 152C174.772 152 189.672 166.901 189.672 185.282H195.672C195.672 163.587 178.085 146 156.391 146V152ZM104.282 152H156.391V146H104.282V152ZM99.2272 152.381C100.874 152.13 102.561 152 104.282 152V146C102.258 146 100.269 146.153 98.3241 146.449L99.2272 152.381ZM85 94.9961V141.493H91V94.9961H85ZM177.96 276.939C184.017 283.951 195.529 279.668 195.529 270.402H189.529C189.529 274.109 184.924 275.822 182.501 273.017L177.96 276.939ZM156.391 254.634C157.898 254.634 159.182 255.196 159.966 256.103L164.507 252.182C162.39 249.73 159.322 248.634 156.391 248.634V254.634ZM64.0673 64.4358C64.6698 65.1556 65 66.0644 65 67.0032H71C71 64.6563 70.1746 62.3842 68.6682 60.5846L64.0673 64.4358ZM7 7.26867C7 3.5318 11.6688 1.83573 14.0673 4.70122L18.6682 0.850067C12.6719 -6.3137 1 -2.07343 1 7.26867H7ZM4.15553 255C5.7267 255 7 256.274 7 257.844H1C1 259.587 2.41257 261 4.15553 261V255ZM7.31104 258.168C7.31812 256.421 5.90328 255 4.15553 255V261C2.58008 261 1.30471 259.719 1.31109 258.144L7.31104 258.168ZM98.3241 146.449C96.5326 146.722 94.61 146.243 93.1701 145.24C91.7556 144.255 91 142.926 91 141.493H85C85 145.271 87.0564 148.295 89.7418 150.164C92.4018 152.016 95.8671 152.892 99.2272 152.381L98.3241 146.449ZM95 84.9961C89.4771 84.9961 85 89.4732 85 94.9961H91C91 92.7869 92.7909 90.9961 95 90.9961V84.9961Z" fill="#006248" mask="url(#path-1-inside-1_2_18)"/>
</g>
<defs>
<filter id="filter0_di_2_18" x="0" y="0.2547" width="256" height="342.741" filterUnits="userSpaceOnUse" color-interpolation-filters="sRGB">
<feFlood flood-opacity="0" result="BackgroundImageFix"/>
<feColorMatrix in="SourceAlpha" type="matrix" values="0 0 0 0 0 0 0 0 0 0 0 0 0 0 0 0 0 0 127 0" result="hardAlpha"/>
<feOffset dy="4"/>
<feGaussianBlur stdDeviation="2"/>
<feComposite in2="hardAlpha" operator="out"/>
<feColorMatrix type="matrix" values="0 0 0 0 0 0 0 0 0 0 0 0 0 0 0 0 0 0 0.25 0"/>
<feBlend mode="normal" in2="BackgroundImageFix" result="effect1_dropShadow_2_18"/>
<feBlend mode="normal" in="SourceGraphic" in2="effect1_dropShadow_2_18" result="shape"/>
<feColorMatrix in="SourceAlpha" type="matrix" values="0 0 0 0 0 0 0 0 0 0 0 0 0 0 0 0 0 0 127 0" result="hardAlpha"/>
<feOffset dy="4"/>
<feGaussianBlur stdDeviation="2"/>
<feComposite in2="hardAlpha" operator="arithmetic" k2="-1" k3="1"/>
<feColorMatrix type="matrix" values="0 0 0 0 0 0 0 0 0 0 0 0 0 0 0 0 0 0 0.25 0"/>
<feBlend mode="normal" in2="shape" result="effect2_innerShadow_2_18"/>
</filter>
<linearGradient id="paint0_linear_2_18" x1="4" y1="5.79209" x2="238.546" y2="315.733" gradientUnits="userSpaceOnUse">
<stop offset="0.0001" stop-color="#06D6A0"/>
<stop offset="1" stop-color="#26547C"/>
</linearGradient>
</defs>
</svg>
